<svg xmlns="http://www.w3.org/2000/svg" xmlns:xlink="http://www.w3.org/1999/xlink" width="1030" height="470" viewBox="0 0 1030 470">
  <defs>
    <style>
      .cls-1, .cls-2 {
        fill: #fffffe;
        fill-rule: evenodd;
      }

      .cls-1 {
        filter: url(#filter);
      }

      .cls-2 {
        filter: url(#filter-2);
      }
    </style>
    <filter id="filter" x="70" y="334" width="902" height="75" filterUnits="userSpaceOnUse">
      <feGaussianBlur result="blur" stdDeviation="1" in="SourceAlpha"/>
      <feComposite result="composite"/>
      <feComposite result="composite-2"/>
      <feComposite result="composite-3"/>
      <feFlood result="flood" flood-color="#fff" flood-opacity="0.35"/>
      <feComposite result="composite-4" operator="in" in2="composite-3"/>
      <feBlend result="blend" in2="SourceGraphic"/>
      <feBlend result="blend-2" in="SourceGraphic"/>
    </filter>
    <filter id="filter-2" x="64" y="45" width="904" height="213" filterUnits="userSpaceOnUse">
      <feGaussianBlur result="blur" stdDeviation="1" in="SourceAlpha"/>
      <feComposite result="composite"/>
      <feComposite result="composite-2"/>
      <feComposite result="composite-3"/>
      <feFlood result="flood" flood-color="#fff" flood-opacity="0.35"/>
      <feComposite result="composite-4" operator="in" in2="composite-3"/>
      <feBlend result="blend" in2="SourceGraphic"/>
      <feBlend result="blend-2" in="SourceGraphic"/>
    </filter>
  </defs>
  <path id="TTRPG" class="cls-1" d="M91.65,401.882q3.328,0,6.03-.27,3.24-.182,5.49-0.18,1.89,0,4.77.18a53.037,53.037,0,0,0,5.76.27q2.61,0,2.61-.99a1.1,1.1,0,0,0-.72-0.99,8.808,8.808,0,0,0-2.25-.63,10.614,10.614,0,0,1-5.31-2.25,6.084,6.084,0,0,1-1.8-4.77v-35.37a64.406,64.406,0,0,1,.27-7.245,3.474,3.474,0,0,1,1.125-2.565,6.279,6.279,0,0,1,3.105-.54h9.09q4.138,0,6.03,1.08a4.305,4.305,0,0,1,2.25,3.06,14.829,14.829,0,0,0,.72,2.835,1.124,1.124,0,0,0,.99.855,1.254,1.254,0,0,0,1.035-.99,4.983,4.983,0,0,0,.405-1.89V350.4a8.311,8.311,0,0,1,.36-2.61l0.54-2.7q0.359-2.16.36-2.52a5.4,5.4,0,0,0-.18-1.395,0.728,0.728,0,0,0-.45-0.675,3.328,3.328,0,0,0-1.935.765,12.019,12.019,0,0,1-1.575,1.035,21.347,21.347,0,0,1-8.55,1.35H88.14a16.413,16.413,0,0,1-3.915-.45,3.657,3.657,0,0,1-2.385-1.35,11.873,11.873,0,0,0-1.215-1.89,2.455,2.455,0,0,0-1.035-.99q-1.261,0-1.53,2.07a47.6,47.6,0,0,1-.99,5,22.367,22.367,0,0,1-1.8,4.455,3.99,3.99,0,0,0-.45,1.8q0,1.171.63,1.17a3.071,3.071,0,0,0,2.025-1.17,9.394,9.394,0,0,0,1.665-2.25,5.824,5.824,0,0,1,2.97-2.61,10.951,10.951,0,0,1,4.41-.9h4.23q2.069,0,3.645.045a14.214,14.214,0,0,1,2.745.315q1.08,0.181,1.485,2.3a52.464,52.464,0,0,1,.405,8.145v34.92a6.172,6.172,0,0,1-1.755,4.77,10.323,10.323,0,0,1-5.265,2.25,8.778,8.778,0,0,0-2.25.63,1.1,1.1,0,0,0-.72.99q0,0.99,2.61.99h0Zm209.7,0q3.328,0,6.03-.27,3.24-.182,5.49-0.18,1.89,0,4.77.18a53.037,53.037,0,0,0,5.76.27q2.61,0,2.61-.99a1.1,1.1,0,0,0-.72-0.99,8.808,8.808,0,0,0-2.25-.63,10.614,10.614,0,0,1-5.31-2.25,6.084,6.084,0,0,1-1.8-4.77v-35.37a64.406,64.406,0,0,1,.27-7.245,3.474,3.474,0,0,1,1.125-2.565,6.279,6.279,0,0,1,3.105-.54h9.09q4.139,0,6.03,1.08a4.305,4.305,0,0,1,2.25,3.06,14.829,14.829,0,0,0,.72,2.835,1.124,1.124,0,0,0,.99.855,1.254,1.254,0,0,0,1.035-.99,4.983,4.983,0,0,0,.4-1.89V350.4a8.311,8.311,0,0,1,.36-2.61l0.54-2.7q0.358-2.16.36-2.52a5.4,5.4,0,0,0-.18-1.395,0.728,0.728,0,0,0-.45-0.675,3.328,3.328,0,0,0-1.935.765,12.019,12.019,0,0,1-1.575,1.035,21.347,21.347,0,0,1-8.55,1.35H297.84a16.413,16.413,0,0,1-3.915-.45,3.658,3.658,0,0,1-2.385-1.35,11.888,11.888,0,0,0-1.215-1.89,2.452,2.452,0,0,0-1.035-.99q-1.262,0-1.53,2.07a47.576,47.576,0,0,1-.99,5,22.342,22.342,0,0,1-1.8,4.455,3.987,3.987,0,0,0-.45,1.8q0,1.171.63,1.17a3.071,3.071,0,0,0,2.025-1.17,9.381,9.381,0,0,0,1.665-2.25,5.824,5.824,0,0,1,2.97-2.61,10.953,10.953,0,0,1,4.41-.9h4.23q2.07,0,3.645.045a14.209,14.209,0,0,1,2.745.315q1.08,0.181,1.485,2.3a52.464,52.464,0,0,1,.405,8.145v34.92a6.172,6.172,0,0,1-1.755,4.77,10.323,10.323,0,0,1-5.265,2.25,8.783,8.783,0,0,0-2.25.63,1.1,1.1,0,0,0-.72.99q0,0.99,2.61.99h0Zm247.77,1.44a16.885,16.885,0,0,0,4.9-.72q2.384-.721,2.385-2.43,0-.989-1.35-0.99a26.337,26.337,0,0,1-5.94-.54,10.462,10.462,0,0,1-4.41-2.43,71.648,71.648,0,0,1-9.135-9.72q-3.465-4.59-9.135-13.14a1.535,1.535,0,0,1-.27-0.72,0.417,0.417,0,0,1,.27-0.45q10.618-5.4,10.62-15.12,0-7.29-5.175-11.025T516.81,342.3q-1.44,0-6.3.27-2.7.181-4.05,0.18h-3.78q-1.17-.089-5.04-0.09-2.611,0-2.61.99a1.483,1.483,0,0,0,.765,1.17,4.265,4.265,0,0,0,2.2.63,9.016,9.016,0,0,1,3.735.99,3.36,3.36,0,0,1,1.44,2.3,31.136,31.136,0,0,1,.315,5.355v38.34q0,3.24-1.53,4.725a9.626,9.626,0,0,1-5.04,2.115,8.783,8.783,0,0,0-2.25.63,1.1,1.1,0,0,0-.72.99q0,0.99,2.61.99,2.43,0,6.03-.36,0.72,0,2.385-.135t3.285-.135a22,22,0,0,1,3.6.27,34.629,34.629,0,0,0,5.22.36q2.61,0,2.61-.99a1.1,1.1,0,0,0-.72-0.99,8.808,8.808,0,0,0-2.25-.63q-6.03-1.08-6.03-7.74v-15.84q0-1.8,1.17-1.8h0.18a21.661,21.661,0,0,1,7.11,1.89,9.189,9.189,0,0,1,3.87,3.51q4.139,6.75,6.84,10.4t6.84,8.775a12.122,12.122,0,0,0,5.265,3.78,21.249,21.249,0,0,0,7.155,1.08h0Zm-33.66-31.5a8.958,8.958,0,0,1-3.69-.54q-1.08-.54-1.08-2.61,0-9.18.18-15.3,0.18-4.86,1.125-6.615T515.73,345q7.83,0,10.53,3.555t2.7,9.945a13.531,13.531,0,0,1-1.665,6.57,12.681,12.681,0,0,1-4.77,4.9,13.555,13.555,0,0,1-7.065,1.845h0Zm194.67,30.06q2.43,0,6.03-.36,0.72,0,2.385-.135t3.285-.135a22,22,0,0,1,3.6.27,34.629,34.629,0,0,0,5.22.36q2.61,0,2.61-.99a1.1,1.1,0,0,0-.72-0.99,8.808,8.808,0,0,0-2.25-.63,7.183,7.183,0,0,1-4.635-2.52,8.793,8.793,0,0,1-1.395-5.31v-42.93q0-3.78,5.76-3.78,6.838,0,10.935,3.6t4.095,10.53q0,8.1-2.79,12.51a9.007,9.007,0,0,1-8.1,4.41q-1.62,0-2.745-.09c-0.751-.059-1.215-0.09-1.395-0.09a1.448,1.448,0,0,0-.945.45,1.217,1.217,0,0,0-.5.81,1.551,1.551,0,0,0,1.125,1.17,6.787,6.787,0,0,0,2.925.54,21.6,21.6,0,0,0,11.205-2.7,16.769,16.769,0,0,0,6.75-7.335,23.68,23.68,0,0,0,2.2-10.3,13.513,13.513,0,0,0-6.21-11.745q-6.21-4.274-16.56-4.275a36.584,36.584,0,0,0-4.14.27q-0.9.091-2.7,0.18t-3.15.09h-3.78q-1.17-.089-5.04-0.09-2.611,0-2.61.99,0,1.262,2.97,1.8,3.24,0.54,4.365,2.61a13.909,13.909,0,0,1,1.125,6.39v37.98q0,3.24-1.53,4.725a9.626,9.626,0,0,1-5.04,2.115,8.783,8.783,0,0,0-2.25.63,1.1,1.1,0,0,0-.72.99q0,0.99,2.61.99h0Zm229.59,0.81a33.02,33.02,0,0,0,10.08-1.44,73.8,73.8,0,0,0,8.91-3.51,9.567,9.567,0,0,1,2.43-1.08,1.463,1.463,0,0,0,1.26-1.71,1.376,1.376,0,0,0-.5-0.765,5.7,5.7,0,0,1-.675-0.765c-0.06-.119-0.166-0.315-0.315-0.585a1.732,1.732,0,0,1-.225-0.855v-2.43a48.89,48.89,0,0,1,.45-6.75,5.8,5.8,0,0,1,1.08-2.88,5.268,5.268,0,0,1,2.7-1.53,3.453,3.453,0,0,0,1.17-.585,1.339,1.339,0,0,0,.72-1.035,1.16,1.16,0,0,0-.675-1.08,2.646,2.646,0,0,0-1.215-.36q-1.71,0-4.05.18t-3.96.18q-2.611,0-6.03-.18-3.24-.179-5.31-0.18a2.193,2.193,0,0,0-1.125.45,1.2,1.2,0,0,0,0,2.16,2.175,2.175,0,0,0,1.125.45,21.6,21.6,0,0,1,4.86.72q2.97,0.721,3.96,2.07a4.97,4.97,0,0,1,.45,2.7l-0.09,2.7q-0.09.9-.09,2.52a10.036,10.036,0,0,1-.765,3.96,9.258,9.258,0,0,1-1.935,2.97,11.41,11.41,0,0,1-3.87,2.3,19.772,19.772,0,0,1-7.11,1.035,21.783,21.783,0,0,1-11.52-3.285,24.212,24.212,0,0,1-8.73-9.45,29.742,29.742,0,0,1-3.33-14.355,30.773,30.773,0,0,1,2.97-13.365,24.979,24.979,0,0,1,8.325-9.99,20.66,20.66,0,0,1,12.1-3.735,24.076,24.076,0,0,1,9.315,1.575q3.734,1.576,5,3.195a15.165,15.165,0,0,1,2.79,4.77,6.287,6.287,0,0,0,.81,1.8,1.458,1.458,0,0,0,1.26.63,1.168,1.168,0,0,0,.945-0.54,2.04,2.04,0,0,0,.405-1.26,91.865,91.865,0,0,0-.9-9.54,2.214,2.214,0,0,0-.225-0.675,1.18,1.18,0,0,0-.585-0.4q-1.8-.9-8.325-1.935a68.656,68.656,0,0,0-9.675-1.035,33.5,33.5,0,0,0-16.47,4.23,32.627,32.627,0,0,0-12.15,11.475,29.679,29.679,0,0,0-4.5,15.975,26.978,26.978,0,0,0,4.275,14.805,30.413,30.413,0,0,0,11.475,10.575,32.184,32.184,0,0,0,15.48,3.87h0Z"/>
  <path id="BRIX" class="cls-2" d="M76.99,248.082a199.317,199.317,0,0,0,20.7-.9q10.8-.6,18.3-0.6a180.151,180.151,0,0,1,19.5.9l9,0.3q30.6,0,51-10.2a101.6,101.6,0,0,0,15.15-9.45q6.447-4.95,11.25-14.7t4.8-25.05q0-16.2-6.45-25.95a44.147,44.147,0,0,0-15-14.55,123.594,123.594,0,0,0-21.15-9,1.334,1.334,0,0,1-1.2-1.35,1.832,1.832,0,0,1,1.2-1.65,77.919,77.919,0,0,0,11.25-5.55,52.455,52.455,0,0,0,8.85-7.35q3.9-3.9,7.05-11.7a45.238,45.238,0,0,0,3.15-17.1q0-24-16.8-34.35t-52.8-10.35q-5.1,0-20.4.9-8.4.6-12.9,0.6H98.29q-4.5-.3-18-0.3-8.7,0-8.7,3.3,0,2.1,2.55,3.9a14.216,14.216,0,0,0,7.35,2.1q10.8,0.9,15.45,6t4.65,15.9v135q0,10.2-5.7,15.3t-17.7,7.2a29.243,29.243,0,0,0-7.5,2.1,3.659,3.659,0,0,0-2.4,3.3q0,3.3,8.7,3.3h0Zm61.8-112.8q-13.8,0-13.8-11.1v-52.2q0-7.2,4.05-10.35t15.75-3.15q24.9,0,34.35,11.7t9.45,27.9q0,11.4-4.35,18.6t-9.15,9.9q-15.6,8.7-36.3,8.7h0Zm9.9,100.2q-12.3,0-18-4.65t-5.7-16.65v-59.7q0-3.9,4.2-7.35t12.9-3.45q20.7,0,34.2,7.5a47.752,47.752,0,0,1,15.45,14.1q6.75,9.3,6.75,24.6a41.206,41.206,0,0,1-6.9,23.1,48.554,48.554,0,0,1-18.3,16.5,52.006,52.006,0,0,1-24.6,6h0Zm347.1,17.4a56.325,56.325,0,0,0,16.35-2.4q7.946-2.4,7.95-8.1,0-3.3-4.5-3.3-12.3,0-19.8-1.8a34.862,34.862,0,0,1-14.7-8.1q-18.9-17.1-30.45-32.4t-30.45-43.8a5.122,5.122,0,0,1-.9-2.4,1.39,1.39,0,0,1,.9-1.5q35.4-18,35.4-50.4,0-24.3-17.25-36.75t-50.25-12.45q-4.8,0-21,.9-9,.6-13.5.6h-12.6q-3.9-.3-16.8-0.3-8.7,0-8.7,3.3,0,2.1,2.55,3.9a14.214,14.214,0,0,0,7.35,2.1q8.7,0.9,12.45,3.3a11.2,11.2,0,0,1,4.8,7.65q1.047,5.252,1.05,17.85v127.8q0,10.8-5.1,15.75t-16.8,7.05a29.241,29.241,0,0,0-7.5,2.1,3.66,3.66,0,0,0-2.4,3.3q0,3.3,8.7,3.3,8.1,0,20.1-1.2,2.4,0,7.95-.45t10.95-.45a73.33,73.33,0,0,1,12,.9,115.372,115.372,0,0,0,17.4,1.2q8.7,0,8.7-3.3a3.667,3.667,0,0,0-2.4-3.3,29.366,29.366,0,0,0-7.5-2.1q-20.1-3.6-20.1-25.8v-52.8q0-6,3.9-6h0.6q13.8,1.5,23.7,6.3a30.622,30.622,0,0,1,12.9,11.7q13.8,22.5,22.8,34.65t22.8,29.25a40.409,40.409,0,0,0,17.55,12.6q10.047,3.6,23.85,3.6h0Zm-112.2-105q-8.7,0-12.3-1.8t-3.6-8.7q0-30.6.6-51,0.6-16.2,3.75-22.05t12.45-5.85q26.1,0,35.1,11.85t9,33.15a45.128,45.128,0,0,1-5.55,21.9,42.28,42.28,0,0,1-15.9,16.35,45.2,45.2,0,0,1-23.55,6.15h0Zm215.4,100.2q11.1,0,20.1-.9,10.8-.6,18.3-0.6,6.3,0,15.9.6a176.764,176.764,0,0,0,19.2.9q8.7,0,8.7-3.3a3.667,3.667,0,0,0-2.4-3.3,29.366,29.366,0,0,0-7.5-2.1q-12-2.1-17.85-7.05t-5.85-15.15V81.582q0-10.2,4.8-14.85t16.5-6.75q9.9-1.8,9.9-6,0-3.3-8.7-3.3t-18.3.6l-14.4.3-15.9-.3q-10.8-.6-19.2-0.6-8.7,0-8.7,3.3,0,4.2,9.9,6,11.4,2.1,15.75,6.6t4.35,15v135.6q0,10.2-5.7,15.15t-17.7,7.05a29.241,29.241,0,0,0-7.5,2.1,3.66,3.66,0,0,0-2.4,3.3q0,3.3,8.7,3.3h0Zm160.8,0a149.639,149.639,0,0,0,15.9-.9q3.6-.3,9-0.6t12.9-.3l17.7,0.3q3.6,0.3,9,.3,8.7,0,8.7-3.3a3.66,3.66,0,0,0-2.25-3.3,42.011,42.011,0,0,0-7.65-2.7,22.814,22.814,0,0,1-9.9-4.65,9.509,9.509,0,0,1-3.6-7.35,11.64,11.64,0,0,1,2.7-6.9l40.5-52.2q1.5-1.8,2.7-1.8,1.5,0,3.9,3.3l31.2,45.3a16.331,16.331,0,0,1,3.6,9.9,11.676,11.676,0,0,1-4.05,8.85,22.752,22.752,0,0,1-9.15,5.25q-9.9,2.7-9.9,6t8.7,3.3l30.9-.3q9.3,0,26.7,1.2l16.2,0.6q8.7,0,8.7-3.3a3.66,3.66,0,0,0-2.25-3.3,42.011,42.011,0,0,0-7.65-2.7,44.118,44.118,0,0,1-16.8-8.85,79.24,79.24,0,0,1-15.3-16.65l-46.5-66.9a11.471,11.471,0,0,1-.9-3.6,7.038,7.038,0,0,1,1.35-3.6,40.146,40.146,0,0,1,3.75-4.8l34.5-40.8a272.02,272.02,0,0,1,21.75-23.55q9.45-8.845,17.25-10.95a41.318,41.318,0,0,0,7.65-2.7,3.65,3.65,0,0,0,2.25-3.3q0-3.3-8.7-3.3a129.869,129.869,0,0,0-14.1.9q-3.3.3-8.4,0.6t-11.7.3l-24.3-.3q-8.7,0-8.7,3.3,0,1.8,3.15,3.45a30.274,30.274,0,0,0,6.75,2.55q13.5,2.4,13.5,9.3,0,5.4-7.8,15.3l-32.1,42.3q-2.7,3.6-4.2,3.6t-4.8-4.5l-27.3-38.4q-9.9-13.8-9.9-18.6a5.3,5.3,0,0,1,3.15-4.95,80.81,80.81,0,0,1,12.15-4.35,45.657,45.657,0,0,0,7.8-3,3.482,3.482,0,0,0,2.1-3q0-3.3-8.7-3.3-5.4,0-9.3.3l-20.4.3q-8.7,0-15.15-.3t-10.65-.6q-13.2-.6-17.1-0.6-8.7,0-8.7,3.3,0,1.8,2.4,3.3a39.977,39.977,0,0,0,7.5,3.3,54.568,54.568,0,0,1,16.95,8.25q7.65,5.555,17.85,19.65l40.2,56.4a14.068,14.068,0,0,1,3,8.1q0,3.9-4.5,10.2l-37.5,46.8a81.4,81.4,0,0,1-21,18.3q-12.6,7.8-21.9,10.5a32.01,32.01,0,0,0-7.5,3q-2.4,1.5-2.4,3.6,0,3.3,8.7,3.3h0Z"/>
</svg>
