<?xml version="1.0" encoding="utf-8"?>
<!-- Generator: Adobe Illustrator 27.2.0, SVG Export Plug-In . SVG Version: 6.00 Build 0)  -->
<svg version="1.1" id="Layer_1" xmlns="http://www.w3.org/2000/svg" xmlns:xlink="http://www.w3.org/1999/xlink" x="0px" y="0px"
	 viewBox="0 0 500 500" style="enable-background:new 0 0 500 500;" xml:space="preserve">
<style type="text/css">
	.st0{fill:none;stroke:#FFFFFF;stroke-width:10;stroke-miterlimit:10;}
</style>
<g>
	<g>
		<path class="st0" d="M136.71,265.08c20.92-20,42.73-12,63.65,8l39.59,31.58V126.44c0-38.22,47.78-38.22,47.78,0v96.53
			c0-14.14,13.87-25.6,28.67-25.6s28.67,11.46,28.67,25.6v19.99c0-14.14,5.87-25.6,20.67-25.6c14.8,0,27.11,11.46,27.11,25.6v24
			c0-14.14,9.19-25.6,23.99-25.6c14.79,0,24.54,11.46,24.54,25.6l-17.01,89.29c0,0-21.05,93.29-97.79,93.29
			c-60.25,0-94.83-50.91-94.83-50.91L136.71,265.08z"/>
		<line class="st0" x1="287.74" y1="212.44" x2="287.74" y2="250.66"/>
		<line class="st0" x1="345.07" y1="241.11" x2="345.07" y2="260.22"/>
		<line class="st0" x1="392.85" y1="260.22" x2="392.85" y2="279.33"/>
	</g>
	<g>
		<polyline class="st0" points="138.33,50.12 187.4,50.12 187.4,99.06 		"/>
		<line class="st0" x1="187.37" y1="50.09" x2="58.59" y2="178.87"/>
		<polyline class="st0" points="58.62,129.83 58.62,178.9 107.56,178.9 		"/>
	</g>
</g>
</svg>
