<svg xmlns="http://www.w3.org/2000/svg" xmlns:xlink="http://www.w3.org/1999/xlink" width="1550" height="1550" viewBox="0 0 1550 1550">
  <defs>
    <style>
      .cls-1 {
        fill: #fffffe;
        fill-rule: evenodd;
        filter: url(#filter);
      }
    </style>
    <filter id="filter" x="324" y="669" width="904" height="213" filterUnits="userSpaceOnUse">
      <feGaussianBlur result="blur" stdDeviation="1" in="SourceAlpha"/>
      <feComposite result="composite"/>
      <feComposite result="composite-2"/>
      <feComposite result="composite-3"/>
      <feFlood result="flood" flood-color="#fff" flood-opacity="0.35"/>
      <feComposite result="composite-4" operator="in" in2="composite-3"/>
      <feBlend result="blend" in2="SourceGraphic"/>
      <feBlend result="blend-2" in="SourceGraphic"/>
    </filter>
  </defs>
  <path id="BRIX" class="cls-1" d="M336.99,872.082a199.328,199.328,0,0,0,20.7-.9q10.8-.6,18.3-0.6a180.151,180.151,0,0,1,19.5.9l9,0.3q30.6,0,51-10.2a101.6,101.6,0,0,0,15.15-9.45q6.447-4.95,11.25-14.7t4.8-25.05q0-16.2-6.45-25.95a44.147,44.147,0,0,0-15-14.55,123.594,123.594,0,0,0-21.15-9,1.334,1.334,0,0,1-1.2-1.35,1.832,1.832,0,0,1,1.2-1.65,77.919,77.919,0,0,0,11.25-5.55,52.455,52.455,0,0,0,8.85-7.35q3.9-3.9,7.05-11.7a45.238,45.238,0,0,0,3.15-17.1q0-24-16.8-34.35t-52.8-10.35q-5.1,0-20.4.9-8.4.6-12.9,0.6h-13.2q-4.5-.3-18-0.3-8.7,0-8.7,3.3,0,2.1,2.55,3.9a14.214,14.214,0,0,0,7.35,2.1q10.8,0.9,15.45,6t4.65,15.9v135q0,10.2-5.7,15.3t-17.7,7.2a29.241,29.241,0,0,0-7.5,2.1,3.66,3.66,0,0,0-2.4,3.3q0,3.3,8.7,3.3h0Zm61.8-112.8q-13.8,0-13.8-11.1v-52.2q0-7.2,4.05-10.35t15.75-3.15q24.9,0,34.35,11.7t9.45,27.9q0,11.4-4.35,18.6t-9.15,9.9q-15.6,8.7-36.3,8.7h0Zm9.9,100.2q-12.3,0-18-4.65t-5.7-16.65v-59.7q0-3.9,4.2-7.35t12.9-3.45q20.7,0,34.2,7.5a47.752,47.752,0,0,1,15.45,14.1q6.75,9.3,6.75,24.6a41.206,41.206,0,0,1-6.9,23.1,48.554,48.554,0,0,1-18.3,16.5,52.006,52.006,0,0,1-24.6,6h0Zm347.1,17.4a56.325,56.325,0,0,0,16.35-2.4q7.946-2.4,7.95-8.1,0-3.3-4.5-3.3-12.3,0-19.8-1.8a34.862,34.862,0,0,1-14.7-8.1q-18.9-17.1-30.45-32.4t-30.45-43.8a5.122,5.122,0,0,1-.9-2.4,1.39,1.39,0,0,1,.9-1.5q35.4-18,35.4-50.4,0-24.3-17.25-36.75t-50.25-12.45q-4.8,0-21,.9-9,.6-13.5.6h-12.6q-3.9-.3-16.8-0.3-8.7,0-8.7,3.3,0,2.1,2.55,3.9a14.214,14.214,0,0,0,7.35,2.1q8.7,0.9,12.45,3.3a11.2,11.2,0,0,1,4.8,7.65q1.047,5.253,1.05,17.85v127.8q0,10.8-5.1,15.75t-16.8,7.05a29.241,29.241,0,0,0-7.5,2.1,3.66,3.66,0,0,0-2.4,3.3q0,3.3,8.7,3.3,8.1,0,20.1-1.2,2.4,0,7.95-.45t10.95-.45a73.33,73.33,0,0,1,12,.9,115.372,115.372,0,0,0,17.4,1.2q8.7,0,8.7-3.3a3.667,3.667,0,0,0-2.4-3.3,29.366,29.366,0,0,0-7.5-2.1q-20.1-3.6-20.1-25.8v-52.8q0-6,3.9-6h0.6q13.8,1.5,23.7,6.3a30.622,30.622,0,0,1,12.9,11.7q13.8,22.5,22.8,34.65t22.8,29.25a40.409,40.409,0,0,0,17.55,12.6q10.047,3.6,23.85,3.6h0Zm-112.2-105q-8.7,0-12.3-1.8t-3.6-8.7q0-30.6.6-51,0.6-16.2,3.75-22.05t12.45-5.85q26.1,0,35.1,11.85t9,33.15a45.128,45.128,0,0,1-5.55,21.9,42.28,42.28,0,0,1-15.9,16.35,45.2,45.2,0,0,1-23.55,6.15h0Zm215.4,100.2q11.1,0,20.1-.9,10.8-.6,18.3-0.6,6.3,0,15.9.6a176.764,176.764,0,0,0,19.2.9q8.7,0,8.7-3.3a3.667,3.667,0,0,0-2.4-3.3,29.366,29.366,0,0,0-7.5-2.1q-12-2.1-17.85-7.05t-5.85-15.15v-135.6q0-10.2,4.8-14.85t16.5-6.75q9.9-1.8,9.9-6,0-3.3-8.7-3.3t-18.3.6l-14.4.3-15.9-.3q-10.8-.6-19.2-0.6-8.7,0-8.7,3.3,0,4.2,9.9,6,11.4,2.1,15.75,6.6t4.35,15v135.6q0,10.2-5.7,15.15t-17.7,7.05a29.241,29.241,0,0,0-7.5,2.1,3.66,3.66,0,0,0-2.4,3.3q0,3.3,8.7,3.3h0Zm160.8,0a149.566,149.566,0,0,0,15.9-.9q3.6-.3,9-0.6t12.9-.3l17.7,0.3q3.6,0.3,9,.3,8.7,0,8.7-3.3a3.66,3.66,0,0,0-2.25-3.3,42.011,42.011,0,0,0-7.65-2.7,22.814,22.814,0,0,1-9.9-4.65,9.509,9.509,0,0,1-3.6-7.35,11.64,11.64,0,0,1,2.7-6.9l40.5-52.2q1.5-1.8,2.7-1.8,1.5,0,3.9,3.3l31.2,45.3a16.331,16.331,0,0,1,3.6,9.9,11.676,11.676,0,0,1-4.05,8.85,22.739,22.739,0,0,1-9.15,5.25q-9.9,2.7-9.9,6t8.7,3.3l30.9-.3q9.3,0,26.7,1.2l16.2,0.6q8.7,0,8.7-3.3a3.66,3.66,0,0,0-2.25-3.3,42.011,42.011,0,0,0-7.65-2.7,44.154,44.154,0,0,1-16.8-8.85,79.347,79.347,0,0,1-15.3-16.65l-46.5-66.9a11.471,11.471,0,0,1-.9-3.6,7.038,7.038,0,0,1,1.35-3.6,40.46,40.46,0,0,1,3.75-4.8l34.5-40.8a272.379,272.379,0,0,1,21.75-23.55q9.45-8.846,17.25-10.95a41.249,41.249,0,0,0,7.65-2.7,3.65,3.65,0,0,0,2.25-3.3q0-3.3-8.7-3.3a129.911,129.911,0,0,0-14.1.9q-3.3.3-8.4,0.6t-11.7.3l-24.3-.3q-8.7,0-8.7,3.3,0,1.8,3.15,3.45a30.254,30.254,0,0,0,6.75,2.55q13.5,2.4,13.5,9.3,0,5.4-7.8,15.3l-32.1,42.3q-2.7,3.6-4.2,3.6t-4.8-4.5l-27.3-38.4q-9.9-13.8-9.9-18.6a5.3,5.3,0,0,1,3.15-4.95,80.8,80.8,0,0,1,12.15-4.35,45.431,45.431,0,0,0,7.8-3,3.476,3.476,0,0,0,2.1-3q0-3.3-8.7-3.3-5.4,0-9.3.3l-20.4.3q-8.7,0-15.15-.3t-10.65-.6q-13.2-.6-17.1-0.6-8.7,0-8.7,3.3,0,1.8,2.4,3.3a40.174,40.174,0,0,0,7.5,3.3,54.547,54.547,0,0,1,16.95,8.25q7.65,5.554,17.85,19.65l40.2,56.4a14.047,14.047,0,0,1,3,8.1q0,3.9-4.5,10.2l-37.5,46.8a81.364,81.364,0,0,1-21,18.3q-12.6,7.8-21.9,10.5a32.1,32.1,0,0,0-7.5,3q-2.4,1.5-2.4,3.6,0,3.3,8.7,3.3h0Z"/>
</svg>
