<?xml version="1.0" encoding="UTF-8"?>
<svg id="Layer_1" data-name="Layer 1" xmlns="http://www.w3.org/2000/svg" viewBox="0 0 676 327.32">
  <defs>
    <style>
      .cls-1 {
        fill: #f5b290;
      }

      .cls-1, .cls-2, .cls-3, .cls-4, .cls-5, .cls-6, .cls-7, .cls-8, .cls-9, .cls-10 {
        fill-rule: evenodd;
      }

      .cls-2 {
        fill: #1a1a1a;
      }

      .cls-11, .cls-12, .cls-13 {
        fill: #fff;
      }

      .cls-3 {
        fill: #998b86;
      }

      .cls-4 {
        fill: #cfdf61;
      }

      .cls-12 {
        font-size: 50.91px;
      }

      .cls-12, .cls-13 {
        font-family: Garamond, Garamond;
      }

      .cls-14, .cls-15 {
        fill: none;
        stroke: #fff;
        stroke-miterlimit: 10;
        stroke-width: 2px;
      }

      .cls-5 {
        fill: #e0dcdc;
      }

      .cls-15 {
        stroke-dasharray: 0 0 12.27 8.18;
      }

      .cls-6 {
        fill: #7d706a;
      }

      .cls-7 {
        fill: #b5a8a4;
      }

      .cls-13 {
        font-size: 36px;
      }

      .cls-8 {
        fill: #f29e73;
      }

      .cls-9 {
        fill: #f0eceb;
      }

      .cls-10 {
        fill: #4e4542;
      }
    </style>
  </defs>
  <g>
    <g>
      <path class="cls-4" d="m57.14,269.04c30.16,0,54.76-7.01,54.76-15.6s-24.6-15.6-54.76-15.6-54.76,7.01-54.76,15.6,24.6,15.6,54.76,15.6Z"/>
      <g>
        <polygon class="cls-10" points="108.28 102.87 114.78 71.8 108.97 69.81 111.17 65.32 138.64 74.55 139.71 91.68 128.7 93.59 127.94 91.98 137.57 89.08 136.04 78.07 120.6 74.7 112.38 104.58 109.74 109.27 108.28 102.87"/>
        <polygon class="cls-7" points="50.57 92.36 44.89 80.08 28.12 86.43 15.59 96.32 11.19 122.68 16.2 134.68 15 123.39 20.92 116.8 29.68 124.8 22.42 132.57 0 193.06 20.33 207.86 15.89 253.65 76.01 253.65 62.64 150.22 79.02 159.54 104.09 154.13 109.26 142.27 102.4 110.11 77.63 134.59 58.55 130.68 53.08 126.06 50.57 92.36"/>
        <path class="cls-6" d="m52.93,123.99l6.99-10.96-14.72-29.19-8.48,27.06,4.61,12.94,11.6.15h0Zm49.48-13.88l-4.75,32.76,6.44,11.25,5.17-11.86-6.86-32.15Z"/>
        <polygon class="cls-9" points="43.05 90.69 50.4 96.07 51.39 103.42 50.46 108.77 52.46 117.71 56.21 146.55 59.68 162.83 57.67 183.12 39.04 192.86 44.57 173.3 40.94 146.93 39.24 118 37.68 113.6 36.72 110.9 43.05 90.69"/>
        <polygon class="cls-1" points="41.15 96.75 47.35 97.45 49.28 101.2 49 103.34 49.69 106.97 49.41 110.26 49.28 110.07 47.74 108.08 43.88 108.19 40.98 111.75 37.53 108.31 41.15 96.75"/>
        <polygon class="cls-8" points="13.11 202.61 14.24 211.97 19.27 218.79 20.33 207.86 13.11 202.61"/>
        <path class="cls-3" d="m20.33,207.86l7.12-52.56-.17,98.34h-11.39l4.44-45.78h0Zm42.31-57.65l-1.25-6.85,15.51,7.95,20.75-8.45,6.44,11.25-25.07,5.41-16.38-9.32Z"/>
        <polygon class="cls-2" points="57.19 253.65 73.79 257.32 71.34 253.65 57.19 253.65"/>
        <polygon class="cls-2" points="46.94 253.65 34.94 257.32 32.78 253.65 46.94 253.65"/>
        <polygon class="cls-8" points="102.28 110.93 104.01 109.17 104.63 103.35 110.28 102.6 112.38 104.58 114.36 104.83 114.36 111.72 108.63 115.16 105.25 116.1 100.36 124.19 102.28 110.93"/>
        <polygon class="cls-10" points="107.36 113.39 97.79 158.07 100.15 195.94 93.37 256.1 105.96 197.47 102.69 158.99 111.5 113.44 107.36 113.39"/>
        <path class="cls-10" d="m47.26,103.34c.59,0,1.07-.25,1.07-.55s-.48-.55-1.07-.55-1.07.25-1.07.55.48.55,1.07.55Z"/>
        <polygon class="cls-8" points="37.53 108.31 42.88 96.95 41.15 96.75 37.53 108.31"/>
        <path class="cls-10" d="m41.37,103.49c.95,0,1.72-.33,1.72-.73s-.77-.73-1.72-.73-1.72.33-1.72.73.77.73,1.72.73Z"/>
        <polygon class="cls-5" points="42.88 96.95 44.52 93.34 50.4 96.07 43.05 90.69 41.15 96.75 42.88 96.95"/>
        <polygon class="cls-5" points="36.72 110.9 41.85 117.62 43.22 144.39 49.65 171.77 47.51 183.55 57.67 183.12 39.04 192.86 44.57 173.3 40.94 146.93 39.18 117.81 36.72 110.9"/>
      </g>
    </g>
    <polygon class="cls-3" points="42.15 253.65 42.15 251.91 43.07 231.11 49.8 213.98 52.25 195.93 55.61 221.32 52.86 236.31 57.14 253.44 42.15 253.65"/>
  </g>
  <g>
    <line class="cls-14" x1="169.56" y1="98.71" x2="175.39" y2="100.17"/>
    <line class="cls-15" x1="183.32" y1="102.15" x2="298.39" y2="130.92"/>
    <line class="cls-14" x1="302.36" y1="131.91" x2="308.18" y2="133.37"/>
    <polygon class="cls-11" points="171.69 98.33 161.17 87.75 146.09 83.98 152.34 94.41 141.91 100.66 157 104.43 171.26 100.05 171.69 98.33"/>
    <path class="cls-11" d="m304.7,132.5l-2.5-8.05.28-.1,10.27,7.38c3.75,1.87,7.51,3.73,11.26,5.6-4.19-.12-8.38-.24-12.57-.36l-12.53,1.68-.21-.18,6.01-5.97Z"/>
  </g>
  <text class="cls-13" transform="translate(225 101.32)"><tspan x="0" y="0">D</tspan></text>
  <polyline class="cls-14" points="351 218.32 459 218.32 459 326.32"/>
  <line class="cls-14" x1="513" y1="164.32" x2="513" y2="272.32"/>
  <line class="cls-14" x1="621" y1="164.32" x2="621" y2="272.32"/>
  <polygon class="cls-14" points="405 164.32 513 164.32 567 110.32 459 110.32 405 164.32"/>
  <polyline class="cls-14" points="459 218.32 513 164.32 621 164.32 675 110.32"/>
  <polyline class="cls-14" points="351 272.32 351 218.32 405 164.32 297 164.32"/>
  <polyline class="cls-14" points="621 110.32 621 56.32 513 56.32 459 110.32 351 110.32 297 164.32 297 272.32 351 272.32 351 326.32 459 326.32 513 272.32 621 272.32 675 218.32 675 110.32 567 110.32 621 56.32"/>
  <text class="cls-12" transform="translate(342 146.32) scale(.71) skewX(-45)"><tspan x="0" y="0">N1</tspan></text>
  <text class="cls-12" transform="translate(504 92.32) scale(.71) skewX(-45)"><tspan x="0" y="0">N2</tspan></text>
  <text class="cls-12" transform="translate(558 146.32) scale(.71) skewX(-45)"><tspan x="0" y="0">N3</tspan></text>
  <text class="cls-12" transform="translate(396 200.32) scale(.71) skewX(-45)"><tspan x="0" y="0">N4</tspan></text>
  <text class="cls-12" transform="translate(450 146.32) scale(.71) skewX(-45)"><tspan x="0" y="0">N5</tspan></text>
  <text class="cls-13" transform="translate(324 29.32)"><tspan x="0" y="0">N = 5</tspan></text>
</svg>