<?xml version="1.0" encoding="UTF-8"?>
<svg id="Layer_1" data-name="Layer 1" xmlns="http://www.w3.org/2000/svg" viewBox="0 0 676 362">
  <defs>
    <style>
      .cls-1 {
        fill: #f5b290;
      }

      .cls-1, .cls-2, .cls-3, .cls-4, .cls-5, .cls-6, .cls-7, .cls-8, .cls-9, .cls-10 {
        fill-rule: evenodd;
      }

      .cls-2 {
        fill: #1a1a1a;
      }

      .cls-11, .cls-12 {
        fill: #fff;
      }

      .cls-3 {
        fill: #998b86;
      }

      .cls-4 {
        fill: #cfdf61;
      }

      .cls-13 {
        stroke-dasharray: 0 0 11.94 7.96;
      }

      .cls-13, .cls-14, .cls-15, .cls-16 {
        fill: none;
        stroke: #fff;
        stroke-miterlimit: 10;
        stroke-width: 2px;
      }

      .cls-5 {
        fill: #e0dcdc;
      }

      .cls-15 {
        stroke-dasharray: 0 0 12.27 8.18;
      }

      .cls-6 {
        fill: #7d706a;
      }

      .cls-16 {
        stroke-dasharray: 0 0 11.72 7.81;
      }

      .cls-7 {
        fill: #b5a8a4;
      }

      .cls-12 {
        font-family: Garamond, Garamond;
        font-size: 36px;
      }

      .cls-8 {
        fill: #f29e73;
      }

      .cls-9 {
        fill: #f0eceb;
      }

      .cls-10 {
        fill: #4e4542;
      }
    </style>
  </defs>
  <g>
    <g>
      <path class="cls-4" d="m57.14,285.72c30.16,0,54.76-7.01,54.76-15.6s-24.6-15.6-54.76-15.6-54.76,7.01-54.76,15.6,24.6,15.6,54.76,15.6Z"/>
      <g>
        <polygon class="cls-10" points="108.28 119.54 114.78 88.47 108.97 86.48 111.17 82 138.64 91.23 139.71 108.36 128.7 110.27 127.94 108.66 137.57 105.76 136.04 94.74 120.6 91.38 112.38 121.26 109.74 125.95 108.28 119.54"/>
        <polygon class="cls-7" points="50.57 109.03 44.89 96.75 28.12 103.11 15.59 113 11.19 139.36 16.2 151.36 15 140.06 20.92 133.47 29.68 141.48 22.42 149.24 0 209.74 20.33 224.54 15.89 270.33 76.01 270.33 62.64 166.9 79.02 176.22 104.09 170.8 109.26 158.94 102.4 126.79 77.63 151.27 58.55 147.36 53.08 142.73 50.57 109.03"/>
        <path class="cls-6" d="m52.93,140.67l6.99-10.96-14.72-29.19-8.48,27.06,4.61,12.94,11.6.15h0Zm49.48-13.88l-4.75,32.76,6.44,11.25,5.17-11.86-6.86-32.15Z"/>
        <polygon class="cls-9" points="43.05 107.37 50.4 112.75 51.39 120.1 50.46 125.45 52.46 134.39 56.21 163.23 59.68 179.51 57.67 199.8 39.04 209.54 44.57 189.97 40.94 163.61 39.24 134.67 37.68 130.28 36.72 127.58 43.05 107.37"/>
        <polygon class="cls-1" points="41.15 113.43 47.35 114.13 49.28 117.87 49 120.02 49.69 123.65 49.41 126.94 49.28 126.75 47.74 124.76 43.88 124.87 40.98 128.43 37.53 124.99 41.15 113.43"/>
        <polygon class="cls-8" points="13.11 219.28 14.24 228.65 19.27 235.47 20.33 224.54 13.11 219.28"/>
        <path class="cls-3" d="m20.33,224.54l7.12-52.56-.17,98.34h-11.39l4.44-45.78h0Zm42.31-57.65l-1.25-6.85,15.51,7.95,20.75-8.45,6.44,11.25-25.07,5.41-16.38-9.32Z"/>
        <polygon class="cls-2" points="57.19 270.33 73.79 274 71.34 270.33 57.19 270.33"/>
        <polygon class="cls-2" points="46.94 270.33 34.94 274 32.78 270.33 46.94 270.33"/>
        <polygon class="cls-8" points="102.28 127.61 104.01 125.85 104.63 120.03 110.28 119.28 112.38 121.26 114.36 121.51 114.36 128.39 108.63 131.84 105.25 132.78 100.36 140.87 102.28 127.61"/>
        <polygon class="cls-10" points="107.36 130.07 97.79 174.75 100.15 212.62 93.37 272.78 105.96 214.15 102.69 175.67 111.5 130.12 107.36 130.07"/>
        <path class="cls-10" d="m47.26,120.02c.59,0,1.07-.25,1.07-.55s-.48-.55-1.07-.55-1.07.25-1.07.55.48.55,1.07.55Z"/>
        <polygon class="cls-8" points="37.53 124.99 42.88 113.63 41.15 113.43 37.53 124.99"/>
        <path class="cls-10" d="m41.37,120.17c.95,0,1.72-.33,1.72-.73s-.77-.73-1.72-.73-1.72.33-1.72.73.77.73,1.72.73Z"/>
        <polygon class="cls-5" points="42.88 113.63 44.52 110.02 50.4 112.75 43.05 107.37 41.15 113.43 42.88 113.63"/>
        <polygon class="cls-5" points="36.72 127.58 41.85 134.3 43.22 161.07 49.65 188.45 47.51 200.22 57.67 199.8 39.04 209.54 44.57 189.97 40.94 163.61 39.18 134.49 36.72 127.58"/>
      </g>
    </g>
    <polygon class="cls-3" points="42.15 270.33 42.15 268.59 43.07 247.79 49.8 230.66 52.25 212.61 55.61 238 52.86 252.99 57.14 270.12 42.15 270.33"/>
  </g>
  <g>
    <line class="cls-14" x1="168.29" y1="119.23" x2="173.82" y2="121.55"/>
    <line class="cls-15" x1="181.36" y1="124.73" x2="290.67" y2="170.76"/>
    <line class="cls-14" x1="294.44" y1="172.34" x2="299.97" y2="174.67"/>
    <polygon class="cls-11" points="170.45 119.17 161.66 107.11 147.34 101.07 151.92 112.34 140.66 116.93 154.99 122.96 169.76 120.81 170.45 119.17"/>
    <path class="cls-11" d="m296.66,173.28l-1.24-8.34.29-.05,9.02,8.86c3.42,2.42,6.85,4.84,10.27,7.26-4.12-.76-8.24-1.52-12.37-2.28l-12.64-.26-.18-.21,6.85-4.98Z"/>
  </g>
  <text class="cls-12" transform="translate(225 136)"><tspan x="0" y="0">D</tspan></text>
  <circle class="cls-14" cx="495" cy="181" r="180"/>
  <path class="cls-14" d="m675,181c0,19.88-80.59,36-180,36s-180-16.12-180-36"/>
  <g>
    <path class="cls-14" d="m315,181c0-1.87.72-3.71,2.09-5.51"/>
    <path class="cls-13" d="m323.08,170.3c22.78-14.66,91.13-25.3,171.92-25.3,85.04,0,156.3,11.79,175.13,27.65"/>
    <path class="cls-14" d="m672.91,175.49c1.38,1.8,2.09,3.64,2.09,5.51"/>
  </g>
  <g>
    <path class="cls-14" d="m495,1c1.87,0,3.71.72,5.51,2.09"/>
    <path class="cls-13" d="m505.7,9.08c14.66,22.78,25.3,91.13,25.3,171.92,0,85.04-11.79,156.3-27.65,175.13"/>
    <path class="cls-14" d="m500.51,358.91c-1.8,1.38-3.64,2.09-5.51,2.09"/>
  </g>
  <path class="cls-14" d="m495,361c-19.88,0-36-80.59-36-180S475.12,1,495,1"/>
  <g>
    <line class="cls-14" x1="501.14" y1="177.35" x2="506.3" y2="174.29"/>
    <line class="cls-16" x1="513.02" y1="170.3" x2="627.27" y2="102.5"/>
    <line class="cls-14" x1="630.63" y1="100.51" x2="635.79" y2="97.45"/>
    <path class="cls-11" d="m505.3,183.63c-3.57,2.12-8.19.94-10.3-2.63s-.94-8.18,2.63-10.3c3.57-2.12,8.18-.94,10.3,2.63,2.12,3.57.94,8.18-2.63,10.3Z"/>
    <path class="cls-11" d="m632.7,99.28l-7.45-3.96.13-.27,12.49-1.98c3.98-1.32,7.96-2.63,11.94-3.94-3.06,2.86-6.12,5.73-9.18,8.59l-7.72,10.01-.27.02.07-8.47Z"/>
  </g>
  <text class="cls-12" transform="translate(555.48 120.93)"><tspan x="0" y="0">R</tspan></text>
</svg>